<?xml version="1.0" standalone="no"?>
<!DOCTYPE svg PUBLIC "-//W3C//DTD SVG 20010904//EN"
 "http://www.w3.org/TR/2001/REC-SVG-20010904/DTD/svg10.dtd">
<svg version="1.0" xmlns="http://www.w3.org/2000/svg"
 width="547.000000pt" height="448.000000pt" viewBox="0 0 547.000000 448.000000"
 preserveAspectRatio="xMidYMid meet">

<g transform="translate(0.000000,448.000000) scale(0.100000,-0.100000)"
fill="#000000" stroke="none">
<path d="M2603 4297 c-22 -12 -143 -160 -143 -175 0 -4 -16 -25 -35 -46 -20
-22 -44 -57 -54 -80 -10 -23 -34 -57 -52 -77 -19 -20 -58 -74 -86 -121 -28
-46 -59 -90 -67 -97 -9 -8 -16 -20 -16 -27 0 -8 -17 -32 -37 -55 -37 -40 -106
-146 -157 -239 -13 -25 -42 -66 -65 -92 -23 -25 -41 -49 -41 -53 0 -4 -12 -22
-27 -41 -58 -69 -74 -94 -103 -155 -16 -34 -42 -76 -58 -93 -16 -17 -45 -58
-65 -91 -21 -33 -53 -78 -72 -99 -19 -22 -38 -49 -41 -60 -3 -12 -23 -43 -44
-71 -21 -27 -44 -63 -51 -80 -12 -26 -38 -64 -108 -155 -10 -14 -26 -48 -34
-76 -12 -42 -13 -54 -1 -76 7 -14 21 -28 29 -32 24 -9 661 -5 703 5 41 9 89
58 127 131 14 26 29 49 34 52 5 3 12 21 15 40 4 18 18 46 32 61 13 15 32 42
42 60 36 71 92 162 106 174 7 6 24 35 36 64 12 29 37 72 54 97 18 25 41 65 51
90 20 49 95 127 130 136 39 10 62 -12 80 -73 9 -32 24 -67 34 -78 9 -11 23
-42 29 -68 7 -27 24 -65 37 -85 14 -20 35 -66 46 -102 11 -36 35 -97 53 -135
18 -39 37 -91 41 -115 4 -25 16 -61 26 -80 32 -61 67 -144 78 -186 6 -23 27
-71 46 -108 19 -37 35 -72 35 -78 0 -5 6 -24 14 -41 8 -18 27 -68 41 -112 15
-44 37 -98 50 -120 12 -22 32 -69 43 -105 11 -36 32 -87 48 -114 15 -26 33
-76 40 -110 7 -34 37 -111 68 -172 30 -60 62 -136 71 -169 10 -33 24 -67 31
-76 8 -8 14 -22 14 -30 0 -8 7 -27 16 -44 9 -16 24 -61 34 -100 10 -38 35
-104 55 -145 74 -151 84 -176 90 -222 4 -26 15 -54 26 -64 10 -9 19 -24 19
-33 0 -9 7 -24 15 -35 8 -10 19 -44 25 -75 15 -71 54 -154 95 -197 l32 -34
654 1 c360 1 665 4 678 8 53 14 48 41 -27 141 -10 14 -43 70 -74 125 -31 55
-68 111 -82 124 -15 14 -33 46 -41 73 -14 47 -55 112 -86 135 -9 7 -22 32 -28
57 -7 30 -20 51 -41 66 -16 12 -30 28 -30 35 0 8 -11 24 -23 37 -13 13 -29 43
-36 67 -7 25 -25 56 -40 70 -15 14 -45 58 -66 96 -45 82 -114 190 -160 250
-18 24 -43 64 -55 91 -13 26 -38 70 -57 98 -18 28 -33 58 -33 68 0 9 -13 32
-28 50 -16 18 -53 74 -82 123 -30 50 -63 102 -75 117 -12 14 -44 65 -70 112
-27 47 -56 94 -66 105 -9 10 -25 33 -34 51 -10 19 -37 61 -61 94 -24 33 -44
64 -44 70 0 12 -44 79 -81 123 -15 17 -30 46 -34 65 -4 18 -15 44 -24 58 -9
14 -22 34 -29 45 -7 11 -24 44 -37 72 -14 29 -44 71 -67 94 -46 44 -118 154
-118 180 0 8 -11 30 -25 49 -14 19 -25 41 -25 49 0 9 -34 63 -75 120 -41 57
-75 108 -75 113 0 5 -15 28 -34 50 -19 22 -37 50 -40 63 -6 25 -29 62 -78 125
-14 19 -29 47 -33 62 -4 15 -22 42 -40 61 -19 19 -41 50 -49 68 -24 54 -76
141 -107 180 -16 20 -29 40 -29 44 0 5 -16 32 -36 61 -19 30 -40 68 -46 86
-14 40 -53 98 -79 118 -10 8 -36 44 -57 80 -40 69 -65 82 -109 57z"/>
<path d="M2305 1585 c-66 -18 -133 -38 -150 -43 -16 -6 -84 -18 -150 -28 -66
-9 -142 -22 -170 -29 -123 -31 -237 -56 -315 -70 -47 -8 -114 -26 -150 -40
-36 -15 -90 -35 -120 -45 -143 -48 -210 -73 -264 -100 -33 -17 -67 -30 -76
-30 -19 0 -179 -81 -224 -114 -17 -12 -62 -35 -100 -51 -37 -15 -80 -38 -95
-51 -15 -12 -43 -25 -63 -29 -22 -4 -43 -16 -52 -30 -8 -12 -52 -43 -98 -68
-46 -24 -109 -68 -141 -97 l-57 -53 27 -36 c15 -20 32 -39 37 -43 17 -11 164
-147 218 -201 26 -26 52 -47 57 -47 10 0 163 -149 194 -188 10 -13 24 -22 31
-20 7 2 53 47 102 101 140 154 174 193 174 204 0 6 41 45 90 89 50 43 102 95
117 116 14 21 42 46 61 55 24 11 41 30 53 58 13 30 39 57 96 99 43 32 89 63
103 68 14 5 34 18 46 29 11 11 83 51 160 90 76 39 146 77 154 84 8 7 40 19 70
27 43 10 58 19 68 40 8 17 23 29 45 33 38 9 197 73 284 116 33 17 79 33 102
36 22 3 48 14 57 24 9 11 27 19 39 19 22 0 95 69 95 89 0 39 -48 72 -102 70
-18 -1 -87 -16 -153 -34z"/>
</g>
</svg>
